# xmcd CD database file
#
# Track frame offsets:
#	150
#	13825
#	25997
#	37885
#	51452
#	65705
#	76272
#	88605
#	101865
#	115280
#	123850
#	133695
#	142485
#	153252
#	166055
#	179890
#	191682
#	203960
#	216622
#	230740
#	241117
#	251800
#	265842
#	278430
#	290977
#	301255
#
# Disc length: 4171 seconds
#
# Revision: 1
# Processed by: cddbd v1.4PL0 Copyright (c) Steve Scherf et al.
# Submitted via: CDex 1.50
#
DISCID=9310491a
DTITLE=Various Artist - Sun Records - The Blues Years 1950-1958, Disc 5
DYEAR=1996
DGENRE=Blues
TTITLE0=Big Memphis Ma Rainey - Call Me Anything But Call Me
TTITLE1=Big Memphis Ma Rainey - Baby No No
TTITLE2=D.A. Hunt - Greyhound Blues
TTITLE3=D.A. Hunt - Lonesome Ol' Jail
TTITLE4=Jimmy DeBerry - Party Line Blues
TTITLE5=Jimmy DeBerry - Take A Little Chance
TTITLE6=Jimmy DeBerry - Time Has Made A Change
TTITLE7=Little Junior's Blue Flames - Feelin' Good
TTITLE8=Little Junior's Blue Flames - Fussin' And Fightin' Blues
TTITLE9=Shy Guy Douglas - Work With Her Boy
TTITLE10=Shy Guy Douglas - Detroit Arrow Blues
TTITLE11=William Stewart - Country Farm Blues
TTITLE12=William Stewart - They Call Me Talking Boy
TTITLE13=William Stewart - Rattlesnake Mama
TTITLE14=William Stewart - Forty Four Blues
TTITLE15=Tot Randolph - Blues Train
TTITLE16=Rufus Thomas Jr - Save That Money
TTITLE17=Rufus Thomas Jr - Tiger Man (King Of The Jungle)
TTITLE18=Boyd Gilmore - Believe I'll Settle Down
TTITLE19=Earl Hooker - Move On Down The Line
TTITLE20=Earl Hooker - Instrumental (The Drive)
TTITLE21=Earl Hooker - The Hucklebuck
TTITLE22=Earl Hooker - Blue Guitar
TTITLE23=Pinetop Perkins - Pinetop's Boogie-Woogie
TTITLE24=Walter Horton - Off The Wall
TTITLE25=Walter Horton - Off The Wall (two incomplete takes)
EXTD=YEAR: 1996
EXTT0=
EXTT1=
EXTT2=
EXTT3=
EXTT4=
EXTT5=
EXTT6=
EXTT7=
EXTT8=
EXTT9=
EXTT10=
EXTT11=
EXTT12=
EXTT13=
EXTT14=
EXTT15=
EXTT16=
EXTT17=
EXTT18=
EXTT19=
EXTT20=
EXTT21=
EXTT22=
EXTT23=
EXTT24=
EXTT25=
PLAYORDER=
